<svg width="16" height="16" viewBox="0 0 16 16" fill="none" xmlns="http://www.w3.org/2000/svg">
<path d="M6.9923 3.90698C6.20674 3.90698 5.56592 4.54777 5.56592 5.33337C5.56592 6.11896 6.2067 6.75975 6.9923 6.75975C7.7779 6.75975 8.41869 6.11896 8.41869 5.33337C8.41869 4.54795 7.7985 3.90698 6.9923 3.90698Z" fill="white"/>
<path d="M8.31531 7.29712H5.66933C4.98716 7.29712 4.42896 7.85529 4.42896 8.5375V9.69507H9.57621V8.5375C9.57621 7.85533 9.01803 7.29712 8.31523 7.29712H8.31531Z" fill="white"/>
<path d="M6.99235 0C3.23011 0 0.150024 3.05937 0.150024 6.84233C0.150024 10.6046 3.2094 13.6847 6.99235 13.6847C8.21195 13.6847 9.43154 13.3539 10.5065 12.7131L10.7545 12.5683L13.8967 15.6692C14.1034 15.876 14.3721 16 14.6822 16C14.9716 16 15.261 15.876 15.4678 15.6692C15.6746 15.4624 15.7986 15.1938 15.7986 14.8837C15.7986 14.5736 15.6746 14.3255 15.4678 14.0981L12.3877 11.0595L12.6564 10.6667C13.4212 9.52973 13.8348 8.20674 13.8348 6.84244C13.8347 3.05952 10.7753 0.000114342 6.99247 0.000114342L6.99235 0ZM6.99235 11.8035C4.24302 11.8035 2.01048 9.57099 2.01048 6.82166C2.01048 4.07232 4.24302 1.83978 6.99235 1.83978C9.74169 1.83978 11.9742 4.07232 11.9742 6.82166C11.9742 9.57099 9.74169 11.8035 6.99235 11.8035Z" fill="white"/>
</svg>
