<svg width="21" height="16" viewBox="0 0 21 16" fill="none" xmlns="http://www.w3.org/2000/svg">
<path d="M5.85065 7.55458L10.3226 5.61588V5.61603C10.372 5.5946 10.428 5.5946 10.4774 5.61603L14.9494 7.55473V7.55458C15.0205 7.58553 15.0666 7.65562 15.0666 7.7333V10.7279C15.0506 10.9141 14.8948 11.0569 14.708 11.0569C14.5211 11.0569 14.3653 10.9141 14.3494 10.7279V8.17063L13.7494 8.4373V10.7892C13.7494 12.7652 7.04807 12.7652 7.04807 10.7892V8.43192L5.85074 7.912H5.85059C5.77946 7.8812 5.73333 7.81096 5.73333 7.73328C5.73333 7.6556 5.77946 7.58537 5.85059 7.55456L5.85065 7.55458ZM0 0.351934V2.31471C0 2.50905 0.157588 2.66664 0.351934 2.66664H20.4479C20.6422 2.66664 20.7998 2.50905 20.7998 2.31471V0.351934C20.7998 0.157588 20.6422 0 20.4479 0H0.351934C0.157588 0 0 0.157588 0 0.351934V0.351934ZM1.59999 1.86667C1.38422 1.86667 1.18986 1.73676 1.10727 1.53751C1.02468 1.3381 1.07037 1.10879 1.2229 0.956252C1.37543 0.803723 1.60473 0.758039 1.80415 0.840626C2.00341 0.923216 2.13332 1.11756 2.13332 1.33335C2.13332 1.47486 2.07707 1.61043 1.97707 1.71043C1.87707 1.81043 1.7415 1.86668 1.59999 1.86668L1.59999 1.86667ZM3.73332 1.86667C3.51755 1.86667 3.32319 1.73676 3.2406 1.53751C3.15801 1.3381 3.20369 1.10879 3.35623 0.956252C3.50875 0.803723 3.73805 0.758039 3.93748 0.840626C4.13674 0.923216 4.26665 1.11756 4.26665 1.33335C4.26665 1.47486 4.21039 1.61043 4.11039 1.71043C4.01039 1.81043 3.87483 1.86668 3.73331 1.86668L3.73332 1.86667ZM5.86665 1.86667C5.65087 1.86667 5.45652 1.73676 5.37393 1.53751C5.29134 1.3381 5.33702 1.10879 5.48955 0.956252C5.64208 0.803723 5.87138 0.758039 6.07081 0.840626C6.27006 0.923216 6.39997 1.11756 6.39997 1.33335C6.39997 1.47486 6.34372 1.61043 6.24372 1.71043C6.14372 1.81043 6.00816 1.86668 5.86664 1.86668L5.86665 1.86667ZM19.1999 4.13067V13.9146C19.1985 14.182 18.9821 14.3984 18.7147 14.3999H2.0854C1.81799 14.3984 1.60163 14.182 1.60015 13.9146V4.13067C1.60015 3.91117 1.42232 3.73333 1.20282 3.73333H0.402818C0.296567 3.73184 0.194037 3.77307 0.118445 3.84777C0.0427008 3.92247 0.000140962 4.0244 0.000140962 4.13065V15.5973C-0.00134711 15.7035 0.0398741 15.8061 0.114575 15.8817C0.189276 15.9574 0.291211 16 0.397462 16H20.3974C20.5036 16.0014 20.6062 15.9602 20.6818 15.8855C20.7575 15.8108 20.8001 15.7089 20.8001 15.6026V4.13601C20.8016 4.02976 20.7603 3.92723 20.6856 3.85164C20.6109 3.77589 20.509 3.73333 20.4028 3.73333H19.6028C19.4965 3.73184 19.394 3.77307 19.3184 3.84777C19.2426 3.92247 19.2001 4.0244 19.2001 4.13065L19.1999 4.13067Z" fill="white"/>
</svg>
