<svg width="17" height="16" viewBox="0 0 17 16" fill="none" xmlns="http://www.w3.org/2000/svg">
<path d="M7.16633 14.6666C7.16633 15.4023 6.56951 16 5.83318 16C5.0974 16 4.49976 15.4023 4.49976 14.6666C4.49976 13.9295 5.0974 13.3331 5.83318 13.3331C6.56951 13.3331 7.16633 13.9295 7.16633 14.6666V14.6666Z" fill="white"/>
<path d="M13.1663 14.6666C13.1663 15.4023 12.5695 16 11.8332 16C11.0967 16 10.4998 15.4023 10.4998 14.6666C10.4998 13.9295 11.0967 13.3331 11.8332 13.3331C12.5695 13.3331 13.1663 13.9295 13.1663 14.6666V14.6666Z" fill="white"/>
<path d="M16.4999 2.66657H3.58775L3.375 1.31639C3.26046 0.592357 2.56696 0 1.83343 0H0.5V1.33314H2.02736L3.71289 12.0078C3.77009 12.3698 4.11704 12.6665 4.48368 12.6665H15.1665V11.3331H4.95654L4.74574 9.99996H15.1668L16.4999 2.66657ZM14.0542 8.66657H4.53489L3.79786 4.00014H14.9021L14.0542 8.66657Z" fill="white"/>
</svg>
