<svg width="24" height="24" viewBox="0 0 24 24" fill="none" xmlns="http://www.w3.org/2000/svg">
<g clip-path="url(#clip0_79_275)">
<path d="M12 22C13.1 22 14 21.1 14 20H10C10 21.1 10.9 22 12 22ZM18 16V11C18 7.93 16.37 5.36 13.5 4.68V4C13.5 3.17 12.83 2.5 12 2.5C11.17 2.5 10.5 3.17 10.5 4V4.68C7.64 5.36 6 7.92 6 11V16L4 18V19H20V18L18 16ZM16 17H8V11C8 8.52 9.51 6.5 12 6.5C14.49 6.5 16 8.52 16 11V17Z" fill="#CFD8E3"/>
<g filter="url(#filter0_d_79_275)">
<circle cx="19" cy="5" r="5" fill="#FBFDFE"/>
<circle cx="19" cy="5" r="4" fill="#FF1F1F"/>
</g>
</g>
<defs>
<filter id="filter0_d_79_275" x="10" y="-4" width="18" height="18" filterUnits="userSpaceOnUse" color-interpolation-filters="sRGB">
<feFlood flood-opacity="0" result="BackgroundImageFix"/>
<feColorMatrix in="SourceAlpha" type="matrix" values="0 0 0 0 0 0 0 0 0 0 0 0 0 0 0 0 0 0 127 0" result="hardAlpha"/>
<feOffset/>
<feGaussianBlur stdDeviation="2"/>
<feColorMatrix type="matrix" values="0 0 0 0 0 0 0 0 0 0 0 0 0 0 0 0 0 0 0.1 0"/>
<feBlend mode="normal" in2="BackgroundImageFix" result="effect1_dropShadow_79_275"/>
<feBlend mode="normal" in="SourceGraphic" in2="effect1_dropShadow_79_275" result="shape"/>
</filter>
<clipPath id="clip0_79_275">
<rect width="24" height="24" fill="white"/>
</clipPath>
</defs>
</svg>
