<svg width="32" height="32" viewBox="0 0 32 32" fill="none" xmlns="http://www.w3.org/2000/svg">
<path d="M18.6667 2.66666H8.00004C7.2928 2.66666 6.61452 2.94761 6.11442 3.4477C5.61433 3.9478 5.33337 4.62608 5.33337 5.33332V26.6667C5.33337 27.3739 5.61433 28.0522 6.11442 28.5523C6.61452 29.0524 7.2928 29.3333 8.00004 29.3333H24C24.7073 29.3333 25.3856 29.0524 25.8857 28.5523C26.3858 28.0522 26.6667 27.3739 26.6667 26.6667V10.6667L18.6667 2.66666Z" stroke="#228BDB" stroke-width="2" stroke-linecap="round" stroke-linejoin="round"/>
<path d="M18.6666 2.66666V10.6667H26.6666" stroke="#228BDB" stroke-width="2" stroke-linecap="round" stroke-linejoin="round"/>
<path d="M9.55005 16.8H10.35" stroke="#C4C4C4" stroke-width="2" stroke-linecap="round" stroke-linejoin="round"/>
<path d="M12.8501 16.8H22.4501" stroke="#C4C4C4" stroke-width="2" stroke-linecap="round" stroke-linejoin="round"/>
<path d="M9.55005 20.8H10.35" stroke="#C4C4C4" stroke-width="2" stroke-linecap="round" stroke-linejoin="round"/>
<path d="M12.8501 20.8H22.4501" stroke="#C4C4C4" stroke-width="2" stroke-linecap="round" stroke-linejoin="round"/>
<path d="M9.55005 24.8H10.35" stroke="#C4C4C4" stroke-width="2" stroke-linecap="round" stroke-linejoin="round"/>
<path d="M12.8501 24.8H22.4501" stroke="#C4C4C4" stroke-width="2" stroke-linecap="round" stroke-linejoin="round"/>
</svg>
